<svg preserveAspectRatio="none" overflow="visible" style="display: block;" width="37.5213" height="11.7569" viewBox="0 0 37.5213 11.7569" fill="none" xmlns="http://www.w3.org/2000/svg">
<path id="Vector" d="M34.6514 10.9877C35.0791 11.7231 36.0237 11.9754 36.753 11.5477C37.4883 11.12 37.7406 10.1815 37.313 9.44307C33.9376 3.61538 27.6637 0 20.9345 0H16.5899C9.86064 0 3.58372 3.62154 0.208336 9.44616C-0.219356 10.1815 0.0329521 11.1231 0.768337 11.5508C1.01141 11.6923 1.27603 11.7569 1.53757 11.7569C2.0668 11.7569 2.58372 11.48 2.86988 10.9908C5.69449 6.10769 10.953 3.07693 16.5868 3.07693H20.9314C26.5683 3.07693 31.8237 6.10769 34.6514 10.9877Z" fill="#008163"/>
</svg>
